<svg xmlns="http://www.w3.org/2000/svg" viewBox="0 0 24 24" fill="currentColor" aria-hidden="true" class="h-6 w-6 text-gray-400">
  <path fill-rule="evenodd" d="M2.25 12c0-5.385 4.365-9.75 9.75-9.75s9.75 4.365 9.75 9.75-4.365 9.75-9.75 9.75S2.25 17.385 2.25 12zm11.378-3.917c-.89-.777-2.366-.777-3.255 0a.75.75 0 01-.988-1.134c1.454-1.272 3.79-1.272 5.244 0a.75.75 0 01-.988 1.134zM10.5 12a1.5 1.5 0 11-3 0 1.5 1.5 0 013 0zm6 0a1.5 1.5 0 11-3 0 1.5 1.5 0 013 0zm-3.75 4.5a.75.75 0 000-1.5h-3a.75.75 0 000 1.5h3z" clip-rule="evenodd"/>
</svg>
