<svg xmlns="http://www.w3.org/2000/svg" viewBox="0 0 24 24" fill="currentColor" aria-hidden="true" class="h-6 w-6 text-gray-400">
  <path d="M12 2.25a.75.75 0 01.75.75v.518a12.001 12.001 0 018.3 4.017.75.75 0 01-.988 1.134 10.5 10.5 0 00-16.024 0 .75.75 0 01-.988-1.134A12.001 12.001 0 0111.25 3.518v-.518A.75.75 0 0112 2.25z"/>
  <path fill-rule="evenodd" d="M12 6a.75.75 0 01.75.75v1.063a13.501 13.501 0 017.928 4.13.75.75 0 01-.972 1.148 12 12 0 00-15.912 0 .75.75 0 01-.972-1.148A13.501 13.501 0 0111.25 7.813V6.75A.75.75 0 0112 6zm-3.53 9.22a.75.75 0 00-1.06-1.06l-2.123 2.122a.75.75 0 001.061 1.06l2.122-2.122zm1.06-1.06a.75.75 0 011.06 0l.722.721a.75.75 0 11-1.06 1.06l-.722-.721a.75.75 0 010-1.06zm3.392 1.06a.75.75 0 001.06 0l2.122-2.122a.75.75 0 00-1.06-1.06l-2.123 2.122a.75.75 0 000 1.06zM11.25 18a.75.75 0 01.75-.75h.008a.75.75 0 01.75.75v.008a.75.75 0 01-.75.75h-.008a.75.75 0 01-.75-.75v-.008z" clip-rule="evenodd"/>
</svg>
